<svg id="Layer_2" data-name="Layer 2" xmlns="http://www.w3.org/2000/svg" viewBox="0 0 430 417"><defs><style>.cls-1,.cls-2{fill:#fff;}.cls-1{fill-rule:evenodd;}</style></defs><title>O2 Logo Full RGB - White-01-01</title><path class="cls-1" d="M126.27,208.49c0,49.91,36.23,91.27,88.87,91.27,52.3,0,88.54-41.36,88.54-91.27,0-53-35.55-91.27-88.54-91.27-53.32,0-88.87,38.29-88.87,91.27Zm34.18,0c0-33.16,20.17-65.29,54.69-65.29,34.19,0,54.35,32.13,54.35,65.29,0,31.11-16.74,65.29-54.35,65.29-37.94,0-54.69-34.18-54.69-65.29Z"/><path class="cls-2" d="M351.5,338.86V326.7H320c12.61-12.39,29.09-27.43,29.09-43.8,0-15.15-9.52-22.56-24.23-22.56A51.36,51.36,0,0,0,302,265.87l1.22,12.83c5.08-3.32,11.28-6.2,17.8-6.2,6.31,0,12.61,3.32,12.61,10.4,0,14.16-26.21,36.05-33.4,43v12.94Z"/></svg>